<svg width="1024" height="1024" viewBox="0 0 1024 1024" fill="none" xmlns="http://www.w3.org/2000/svg">
  <defs>
    <linearGradient id="trail" x1="278" y1="737" x2="732" y2="312" gradientUnits="userSpaceOnUse">
      <stop stop-color="#4AC18D"/>
      <stop offset="1" stop-color="#D2B15C"/>
    </linearGradient>
  </defs>

  <path d="M284 738C363 699 451 632 537 546C623 458 686 380 732 312" stroke="#D2B15C" stroke-opacity="0.2" stroke-width="28" stroke-linecap="round"/>
  <path d="M284 738C361 696 449 631 535 545C623 455 688 376 732 308" stroke="url(#trail)" stroke-width="58" stroke-linecap="round"/>

  <path d="M716 286V500" stroke="#EEF3F7" stroke-width="28" stroke-linecap="round"/>
  <path d="M716 290L824 336L716 382V290Z" fill="#D2B15C"/>
  <circle cx="716" cy="506" r="18" fill="#4AC18D"/>

  <circle cx="284" cy="742" r="112" fill="#EEF3F7"/>
  <circle cx="284" cy="742" r="112" stroke="#D7E0E7" stroke-width="6"/>
  <circle cx="246" cy="701" r="10" fill="#C5D0D8"/>
  <circle cx="296" cy="682" r="10" fill="#C5D0D8"/>
  <circle cx="344" cy="712" r="10" fill="#C5D0D8"/>
  <circle cx="236" cy="754" r="10" fill="#C5D0D8"/>
  <circle cx="284" cy="740" r="10" fill="#C5D0D8"/>
  <circle cx="335" cy="764" r="10" fill="#C5D0D8"/>
  <circle cx="266" cy="800" r="10" fill="#C5D0D8"/>
</svg>
