<svg width="1024" height="1024" viewBox="0 0 1024 1024" fill="none" xmlns="http://www.w3.org/2000/svg">
  <defs>
    <linearGradient id="bg" x1="140" y1="104" x2="888" y2="944" gradientUnits="userSpaceOnUse">
      <stop stop-color="#133041"/>
      <stop offset="1" stop-color="#080C10"/>
    </linearGradient>
    <radialGradient id="glow" cx="0" cy="0" r="1" gradientUnits="userSpaceOnUse" gradientTransform="translate(750 292) rotate(132.184) scale(637.541)">
      <stop stop-color="#4AC18D" stop-opacity="0.28"/>
      <stop offset="1" stop-color="#4AC18D" stop-opacity="0"/>
    </radialGradient>
    <linearGradient id="trail" x1="258" y1="747" x2="744" y2="289" gradientUnits="userSpaceOnUse">
      <stop stop-color="#4AC18D"/>
      <stop offset="1" stop-color="#D2B15C"/>
    </linearGradient>
  </defs>

  <rect x="64" y="64" width="896" height="896" rx="224" fill="url(#bg)"/>
  <rect x="96" y="96" width="832" height="832" rx="192" stroke="#223244" stroke-width="2"/>
  <circle cx="732" cy="304" r="292" fill="url(#glow)"/>

  <path d="M248 754C338 722 438 650 535 554C626 464 692 383 740 284" stroke="#D2B15C" stroke-opacity="0.22" stroke-width="30" stroke-linecap="round"/>
  <path d="M248 754C337 709 433 636 525 544C615 453 682 369 738 280" stroke="url(#trail)" stroke-width="60" stroke-linecap="round"/>
  <path d="M250 754C333 704 429 632 522 543C617 451 688 365 738 280" stroke="#EEF3F7" stroke-opacity="0.16" stroke-width="14" stroke-linecap="round"/>

  <path d="M724 256V500" stroke="#EEF3F7" stroke-width="28" stroke-linecap="round"/>
  <path d="M724 262L842 314L724 366V262Z" fill="#D2B15C"/>
  <circle cx="724" cy="506" r="18" fill="#4AC18D"/>

  <g filter="none">
    <circle cx="252" cy="756" r="118" fill="#EEF3F7"/>
    <circle cx="252" cy="756" r="118" stroke="#D7E0E7" stroke-width="6"/>
    <circle cx="212" cy="714" r="10" fill="#C5D0D8"/>
    <circle cx="265" cy="694" r="10" fill="#C5D0D8"/>
    <circle cx="315" cy="725" r="10" fill="#C5D0D8"/>
    <circle cx="201" cy="768" r="10" fill="#C5D0D8"/>
    <circle cx="251" cy="754" r="10" fill="#C5D0D8"/>
    <circle cx="305" cy="777" r="10" fill="#C5D0D8"/>
    <circle cx="232" cy="816" r="10" fill="#C5D0D8"/>
    <circle cx="286" cy="829" r="10" fill="#C5D0D8"/>
  </g>

  <path d="M180 874C284 842 397 802 520 802C628 802 721 832 816 866" stroke="#223244" stroke-width="22" stroke-linecap="round"/>
</svg>
